<svg viewBox="0 0 400 240" xmlns="http://www.w3.org/2000/svg" fill="none">
  <rect width="400" height="240" fill="#f0f4eb"/>
  <rect x="38" y="32" width="324" height="176" rx="18" fill="#fff" stroke="#d8e5cc" stroke-width="2"/>
  <rect x="62" y="56" width="108" height="72" rx="12" fill="#e8f4d8" stroke="#79bc3d" stroke-width="2"/>
  <path d="M84 104C98 84 118 94 130 78C140 95 152 96 148 116" stroke="#79bc3d" stroke-width="4" stroke-linecap="round" stroke-linejoin="round"/>
  <circle cx="134" cy="78" r="6" fill="#79bc3d"/>
  <rect x="190" y="58" width="124" height="14" rx="7" fill="#79bc3d" opacity=".75"/>
  <rect x="190" y="86" width="96" height="10" rx="5" fill="#d8e5cc"/>
  <rect x="190" y="108" width="116" height="10" rx="5" fill="#d8e5cc"/>
  <rect x="62" y="152" width="70" height="26" rx="13" fill="#79bc3d" opacity=".9"/>
  <rect x="148" y="152" width="70" height="26" rx="13" fill="#e8f4d8" stroke="#79bc3d" stroke-width="2"/>
  <rect x="234" y="152" width="70" height="26" rx="13" fill="#e8f4d8" stroke="#79bc3d" stroke-width="2"/>
  <path d="M132 165H148M218 165H234" stroke="#79bc3d" stroke-width="3" stroke-linecap="round"/>
  <path d="M316 150l21 21M337 150l-21 21" stroke="#c8d8b8" stroke-width="3" stroke-linecap="round"/>
  <text x="84" y="169" fill="#fff" font-family="Arial, sans-serif" font-size="12" font-weight="700">IDEA</text>
  <text x="164" y="169" fill="#79bc3d" font-family="Arial, sans-serif" font-size="12" font-weight="700">USER</text>
  <text x="247" y="169" fill="#79bc3d" font-family="Arial, sans-serif" font-size="12" font-weight="700">PLAN</text>
</svg>
